<svg width="1250" height="207" viewBox="0 0 1250 207" fill="none" xmlns="http://www.w3.org/2000/svg">
<mask id="mask0" mask-type="alpha" maskUnits="userSpaceOnUse" x="0" y="0" width="1250" height="207">
<path d="M0 10.0488C0 4.52598 4.47715 0.0488281 10 0.0488281H1240C1245.52 0.0488281 1250 4.52598 1250 10.0488V196.049C1250 201.572 1245.52 206.049 1240 206.049H10C4.47717 206.049 0 201.572 0 196.049V10.0488Z" fill="#1D92FF"/>
</mask>
<g mask="url(#mask0)">
<path opacity="0.2" d="M1120 26.0488C800.562 144.548 307.758 191.548 203 200.549C212.591 211.049 221.443 211.049 221.443 211.049C221.443 211.049 872.86 147.548 1120 26.0488Z" fill="#006ED5"/>
<path opacity="0.2" d="M812 10.0488C492.562 128.548 -0.242165 175.548 -105 184.549C-95.4095 195.049 -86.5567 195.049 -86.5567 195.049C-86.5567 195.049 564.86 131.548 812 10.0488Z" fill="#006ED5"/>
</g>
</svg>
