<svg width="171" height="78" viewBox="0 0 171 78" fill="none" xmlns="http://www.w3.org/2000/svg">
<path d="M1 71.5063C26.0051 56.5026 45.384 82.758 62.2625 71.5063C79.1409 60.2547 92.8937 87.135 113.523 71.5063C134.152 55.8777 142.279 82.7579 169.159 71.5063" stroke="#A7C2DE" stroke-width="2" stroke-linecap="round" stroke-linejoin="round"/>
<path d="M1 58.4614C26.0051 43.4577 45.384 69.713 62.2625 58.4614C79.1409 47.2097 92.8937 74.09 113.523 58.4614C134.152 42.8327 142.279 69.713 169.159 58.4614" stroke="#A7C2DE" stroke-width="2" stroke-linecap="round" stroke-linejoin="round"/>
<path d="M1 45.4165C26.0051 30.4128 45.384 56.6681 62.2625 45.4165C79.1409 34.1648 92.8937 61.0451 113.523 45.4165C134.152 29.7878 142.279 56.6681 169.159 45.4165" stroke="#A7C2DE" stroke-width="2" stroke-linecap="round" stroke-linejoin="round"/>
<path d="M1 32.3715C26.0051 17.3678 45.384 43.6232 62.2625 32.3715C79.1409 21.1199 92.8937 48.0002 113.523 32.3715C134.152 16.7429 142.279 43.6231 169.159 32.3715" stroke="#A7C2DE" stroke-width="2" stroke-linecap="round" stroke-linejoin="round"/>
<path d="M1 19.3266C26.0051 4.32292 45.384 30.5783 62.2625 19.3266C79.1409 8.07498 92.8937 34.9553 113.523 19.3266C134.152 3.69797 142.279 30.5782 169.159 19.3266" stroke="#A7C2DE" stroke-width="2" stroke-linecap="round" stroke-linejoin="round"/>
<path d="M1 6.2817C26.0051 -8.722 45.384 17.5333 62.2625 6.2817C79.1409 -4.96995 92.8937 21.9104 113.523 6.2817C134.152 -9.34696 142.279 17.5333 169.159 6.2817" stroke="#A7C2DE" stroke-width="2" stroke-linecap="round" stroke-linejoin="round"/>
</svg>
