<svg width="404" height="489" viewBox="0 0 404 489" fill="none" xmlns="http://www.w3.org/2000/svg">
<g filter="url(#filter0_f)">
<rect x="74" y="74.2593" width="256" height="340" rx="10" fill="#DEDEDE" fill-opacity="0.61"/>
</g>
<rect x="64" y="84.2593" width="256" height="313" rx="10" fill="white"/>
<path opacity="0.7" d="M145.939 153.752V157.259H143.889V147.306H147.771C148.519 147.306 149.175 147.443 149.74 147.716C150.31 147.99 150.747 148.379 151.053 148.885C151.358 149.387 151.511 149.958 151.511 150.601C151.511 151.576 151.176 152.347 150.506 152.912C149.84 153.472 148.918 153.752 147.737 153.752H145.939ZM145.939 152.091H147.771C148.314 152.091 148.726 151.964 149.009 151.708C149.296 151.453 149.439 151.089 149.439 150.615C149.439 150.127 149.296 149.733 149.009 149.432C148.722 149.131 148.325 148.976 147.819 148.967H145.939V152.091ZM156.952 151.715C156.683 151.679 156.446 151.661 156.241 151.661C155.494 151.661 155.004 151.914 154.771 152.419V157.259H152.796V149.863H154.662L154.717 150.745C155.113 150.066 155.662 149.726 156.364 149.726C156.583 149.726 156.788 149.756 156.979 149.815L156.952 151.715ZM157.355 153.493C157.355 152.759 157.497 152.105 157.779 151.531C158.062 150.957 158.467 150.512 158.996 150.198C159.529 149.883 160.147 149.726 160.849 149.726C161.847 149.726 162.66 150.031 163.289 150.642C163.923 151.253 164.276 152.082 164.349 153.13L164.362 153.636C164.362 154.771 164.046 155.682 163.412 156.371C162.779 157.054 161.929 157.396 160.862 157.396C159.796 157.396 158.944 157.054 158.306 156.371C157.672 155.687 157.355 154.757 157.355 153.582V153.493ZM159.331 153.636C159.331 154.338 159.463 154.876 159.728 155.25C159.992 155.619 160.37 155.803 160.862 155.803C161.341 155.803 161.715 155.621 161.983 155.256C162.252 154.887 162.387 154.299 162.387 153.493C162.387 152.805 162.252 152.271 161.983 151.893C161.715 151.515 161.336 151.326 160.849 151.326C160.366 151.326 159.992 151.515 159.728 151.893C159.463 152.267 159.331 152.848 159.331 153.636ZM172.237 153.629C172.237 154.769 171.978 155.682 171.458 156.371C170.943 157.054 170.246 157.396 169.366 157.396C168.619 157.396 168.015 157.136 167.555 156.617V160.103H165.579V149.863H167.411L167.479 150.587C167.958 150.013 168.582 149.726 169.353 149.726C170.264 149.726 170.973 150.063 171.479 150.738C171.984 151.412 172.237 152.342 172.237 153.527V153.629ZM170.262 153.486C170.262 152.798 170.139 152.267 169.893 151.893C169.651 151.519 169.298 151.333 168.833 151.333C168.213 151.333 167.787 151.569 167.555 152.043V155.072C167.796 155.559 168.227 155.803 168.847 155.803C169.79 155.803 170.262 155.031 170.262 153.486ZM173.16 153.493C173.16 152.759 173.301 152.105 173.584 151.531C173.867 150.957 174.272 150.512 174.801 150.198C175.334 149.883 175.951 149.726 176.653 149.726C177.651 149.726 178.465 150.031 179.094 150.642C179.727 151.253 180.08 152.082 180.153 153.13L180.167 153.636C180.167 154.771 179.85 155.682 179.217 156.371C178.583 157.054 177.733 157.396 176.667 157.396C175.601 157.396 174.748 157.054 174.11 156.371C173.477 155.687 173.16 154.757 173.16 153.582V153.493ZM175.136 153.636C175.136 154.338 175.268 154.876 175.532 155.25C175.797 155.619 176.175 155.803 176.667 155.803C177.146 155.803 177.519 155.621 177.788 155.256C178.057 154.887 178.191 154.299 178.191 153.493C178.191 152.805 178.057 152.271 177.788 151.893C177.519 151.515 177.141 151.326 176.653 151.326C176.17 151.326 175.797 151.515 175.532 151.893C175.268 152.267 175.136 152.848 175.136 153.636ZM185.39 155.215C185.39 154.974 185.269 154.785 185.027 154.648C184.79 154.507 184.408 154.381 183.879 154.272C182.12 153.903 181.24 153.155 181.24 152.03C181.24 151.374 181.511 150.827 182.054 150.389C182.601 149.947 183.314 149.726 184.193 149.726C185.132 149.726 185.882 149.947 186.442 150.389C187.007 150.831 187.29 151.405 187.29 152.112H185.314C185.314 151.829 185.223 151.597 185.041 151.415C184.859 151.228 184.574 151.134 184.187 151.134C183.854 151.134 183.596 151.209 183.414 151.36C183.232 151.51 183.141 151.702 183.141 151.934C183.141 152.153 183.243 152.331 183.448 152.467C183.658 152.599 184.009 152.716 184.501 152.816C184.993 152.912 185.408 153.021 185.745 153.144C186.789 153.527 187.311 154.19 187.311 155.133C187.311 155.808 187.021 156.355 186.442 156.774C185.864 157.189 185.116 157.396 184.2 157.396C183.58 157.396 183.029 157.287 182.546 157.068C182.067 156.845 181.691 156.542 181.418 156.159C181.145 155.771 181.008 155.354 181.008 154.908H182.881C182.899 155.259 183.029 155.528 183.271 155.714C183.512 155.901 183.836 155.995 184.241 155.995C184.619 155.995 184.904 155.924 185.096 155.783C185.292 155.637 185.39 155.448 185.39 155.215ZM192.875 157.259C192.784 157.082 192.718 156.861 192.677 156.596C192.198 157.129 191.576 157.396 190.811 157.396C190.086 157.396 189.484 157.186 189.006 156.767C188.532 156.348 188.295 155.819 188.295 155.181C188.295 154.397 188.584 153.796 189.163 153.376C189.746 152.957 190.587 152.745 191.686 152.741H192.595V152.317C192.595 151.975 192.506 151.702 192.328 151.497C192.155 151.292 191.879 151.189 191.501 151.189C191.168 151.189 190.906 151.269 190.715 151.428C190.528 151.588 190.435 151.806 190.435 152.084H188.459C188.459 151.656 188.591 151.26 188.855 150.895C189.12 150.53 189.493 150.246 189.977 150.041C190.46 149.831 191.002 149.726 191.604 149.726C192.515 149.726 193.237 149.956 193.771 150.417C194.308 150.872 194.577 151.515 194.577 152.344V155.55C194.582 156.252 194.68 156.783 194.871 157.143V157.259H192.875ZM191.241 155.885C191.533 155.885 191.802 155.821 192.048 155.694C192.294 155.562 192.476 155.386 192.595 155.167V153.896H191.856C190.868 153.896 190.341 154.238 190.277 154.921L190.271 155.038C190.271 155.284 190.357 155.486 190.53 155.646C190.703 155.806 190.94 155.885 191.241 155.885ZM198.18 157.259H196.197V146.759H198.18V157.259ZM210.512 148.967H207.463V157.259H205.412V148.967H202.404V147.306H210.512V148.967ZM214.347 157.396C213.262 157.396 212.378 157.063 211.694 156.398C211.015 155.733 210.676 154.846 210.676 153.739V153.547C210.676 152.805 210.819 152.141 211.106 151.558C211.394 150.97 211.799 150.519 212.323 150.205C212.852 149.886 213.453 149.726 214.128 149.726C215.14 149.726 215.935 150.045 216.514 150.683C217.097 151.321 217.389 152.226 217.389 153.397V154.204H212.679C212.743 154.687 212.934 155.074 213.253 155.366C213.576 155.657 213.984 155.803 214.477 155.803C215.238 155.803 215.832 155.528 216.261 154.976L217.231 156.063C216.935 156.482 216.534 156.81 216.028 157.047C215.522 157.28 214.962 157.396 214.347 157.396ZM214.121 151.326C213.729 151.326 213.41 151.458 213.164 151.722C212.923 151.986 212.768 152.365 212.699 152.857H215.447V152.7C215.438 152.262 215.32 151.925 215.092 151.688C214.864 151.446 214.54 151.326 214.121 151.326ZM220.369 149.863L220.431 150.69C220.955 150.047 221.663 149.726 222.557 149.726C223.509 149.726 224.163 150.102 224.519 150.854C225.038 150.102 225.779 149.726 226.74 149.726C227.542 149.726 228.139 149.961 228.531 150.43C228.923 150.895 229.119 151.597 229.119 152.536V157.259H227.137V152.542C227.137 152.123 227.055 151.818 226.891 151.626C226.727 151.431 226.437 151.333 226.022 151.333C225.43 151.333 225.02 151.615 224.792 152.18L224.799 157.259H222.823V152.549C222.823 152.121 222.739 151.811 222.57 151.62C222.402 151.428 222.115 151.333 221.709 151.333C221.148 151.333 220.743 151.565 220.492 152.03V157.259H218.517V149.863H220.369ZM237.302 153.629C237.302 154.769 237.042 155.682 236.522 156.371C236.007 157.054 235.31 157.396 234.431 157.396C233.683 157.396 233.079 157.136 232.619 156.617V160.103H230.644V149.863H232.476L232.544 150.587C233.022 150.013 233.647 149.726 234.417 149.726C235.328 149.726 236.037 150.063 236.543 150.738C237.049 151.412 237.302 152.342 237.302 153.527V153.629ZM235.326 153.486C235.326 152.798 235.203 152.267 234.957 151.893C234.715 151.519 234.362 151.333 233.897 151.333C233.278 151.333 232.852 151.569 232.619 152.043V155.072C232.861 155.559 233.291 155.803 233.911 155.803C234.854 155.803 235.326 155.031 235.326 153.486ZM240.617 157.259H238.635V146.759H240.617V157.259ZM246.537 157.259C246.446 157.082 246.38 156.861 246.339 156.596C245.86 157.129 245.238 157.396 244.473 157.396C243.748 157.396 243.146 157.186 242.668 156.767C242.194 156.348 241.957 155.819 241.957 155.181C241.957 154.397 242.246 153.796 242.825 153.376C243.409 152.957 244.249 152.745 245.348 152.741H246.257V152.317C246.257 151.975 246.168 151.702 245.99 151.497C245.817 151.292 245.541 151.189 245.163 151.189C244.83 151.189 244.568 151.269 244.377 151.428C244.19 151.588 244.097 151.806 244.097 152.084H242.121C242.121 151.656 242.253 151.26 242.518 150.895C242.782 150.53 243.156 150.246 243.639 150.041C244.122 149.831 244.664 149.726 245.266 149.726C246.177 149.726 246.899 149.956 247.433 150.417C247.97 150.872 248.239 151.515 248.239 152.344V155.55C248.244 156.252 248.342 156.783 248.533 157.143V157.259H246.537ZM244.903 155.885C245.195 155.885 245.464 155.821 245.71 155.694C245.956 155.562 246.138 155.386 246.257 155.167V153.896H245.519C244.53 153.896 244.003 154.238 243.939 154.921L243.933 155.038C243.933 155.284 244.019 155.486 244.192 155.646C244.366 155.806 244.603 155.885 244.903 155.885ZM252.122 148.044V149.863H253.387V151.312H252.122V155.003C252.122 155.277 252.174 155.473 252.279 155.591C252.384 155.71 252.585 155.769 252.881 155.769C253.1 155.769 253.293 155.753 253.462 155.721V157.218C253.075 157.337 252.676 157.396 252.266 157.396C250.88 157.396 250.174 156.696 250.146 155.297V151.312H249.066V149.863H250.146V148.044H252.122ZM257.892 157.396C256.807 157.396 255.923 157.063 255.239 156.398C254.56 155.733 254.221 154.846 254.221 153.739V153.547C254.221 152.805 254.364 152.141 254.651 151.558C254.938 150.97 255.344 150.519 255.868 150.205C256.397 149.886 256.998 149.726 257.673 149.726C258.685 149.726 259.48 150.045 260.059 150.683C260.642 151.321 260.934 152.226 260.934 153.397V154.204H256.224C256.287 154.687 256.479 155.074 256.798 155.366C257.121 155.657 257.529 155.803 258.021 155.803C258.783 155.803 259.377 155.528 259.806 154.976L260.776 156.063C260.48 156.482 260.079 156.81 259.573 157.047C259.067 157.28 258.507 157.396 257.892 157.396ZM257.666 151.326C257.274 151.326 256.955 151.458 256.709 151.722C256.467 151.986 256.312 152.365 256.244 152.857H258.992V152.7C258.983 152.262 258.865 151.925 258.637 151.688C258.409 151.446 258.085 151.326 257.666 151.326Z" fill="#01070D"/>
<rect x="95" y="217.259" width="195" height="6" rx="3" fill="#EBF1F7"/>
<g opacity="0.7">
<path d="M95 143.259H95.015" stroke="#1D92FF" stroke-width="4" stroke-linecap="round" stroke-linejoin="round"/>
<path d="M95 152.259H95.015" stroke="#1D92FF" stroke-width="4" stroke-linecap="round" stroke-linejoin="round"/>
<path d="M95 161.259H95.015" stroke="#1D92FF" stroke-width="4" stroke-linecap="round" stroke-linejoin="round"/>
</g>
<rect x="95" y="201.259" width="75" height="6" rx="3" fill="#C4C4C4"/>
<path d="M109.125 293.94C109.125 291.455 111.14 289.44 113.625 289.44H114.405C116.89 289.44 118.905 291.455 118.905 293.94V338.977H109.125V293.94Z" fill="#1D92FF"/>
<path d="M137.379 297.637C137.379 295.151 139.394 293.137 141.879 293.137H142.659C145.144 293.137 147.159 295.151 147.159 297.637V338.977H137.379V297.637Z" fill="#1D92FF"/>
<path d="M165.631 310.206C165.631 307.721 167.646 305.706 170.131 305.706H170.911C173.396 305.706 175.411 307.721 175.411 310.206V338.977H165.631V310.206Z" fill="#1D92FF"/>
<path d="M193.883 277.674C193.883 275.189 195.898 273.174 198.383 273.174H199.163C201.648 273.174 203.663 275.189 203.663 277.674V338.977H193.883V277.674Z" fill="#1D92FF"/>
<path d="M222.137 290.243C222.137 287.758 224.151 285.743 226.637 285.743H227.416C229.902 285.743 231.916 287.758 231.916 290.243V338.977H222.137V290.243Z" fill="#1D92FF"/>
<path d="M250.389 310.206C250.389 307.721 252.403 305.706 254.889 305.706H255.668C258.154 305.706 260.168 307.721 260.168 310.206V338.977H250.389V310.206Z" fill="#1D92FF"/>
<path opacity="0.15" d="M95 305.03C95 302.545 97.0147 300.53 99.5 300.53H100.28C102.765 300.53 104.78 302.545 104.78 305.03V338.977H95V305.03Z" fill="#1D92FF"/>
<path opacity="0.15" d="M123.252 274.717C123.252 272.232 125.267 270.217 127.752 270.217H128.532C131.017 270.217 133.032 272.232 133.032 274.717V338.977H123.252V274.717Z" fill="#1D92FF"/>
<path opacity="0.15" d="M151.506 271.759C151.506 269.274 153.521 267.259 156.006 267.259H156.786C159.271 267.259 161.286 269.274 161.286 271.759V338.977H151.506V271.759Z" fill="#1D92FF"/>
<path opacity="0.15" d="M179.758 297.637C179.758 295.151 181.773 293.137 184.258 293.137H185.038C187.523 293.137 189.538 295.151 189.538 297.637V338.977H179.758V297.637Z" fill="#1D92FF"/>
<path opacity="0.15" d="M208.01 320.557C208.01 318.072 210.024 316.057 212.51 316.057H213.289C215.775 316.057 217.789 318.072 217.789 320.557V338.977H208.01V320.557Z" fill="#1D92FF"/>
<path opacity="0.15" d="M236.264 274.717C236.264 272.232 238.278 270.217 240.764 270.217H241.543C244.029 270.217 246.043 272.232 246.043 274.717V338.977H236.264V274.717Z" fill="#1D92FF"/>
<rect x="106" y="349.259" width="40" height="6" rx="2.5" fill="#EFEEEE"/>
<circle cx="98" cy="352.259" r="3" fill="#DDEFFF"/>
<rect x="172" y="349.259" width="39" height="6" rx="2.5" fill="#EFEEEE"/>
<circle cx="164" cy="352.259" r="3" fill="#1D92FF"/>
<g opacity="0.5">
<path d="M99.52 371.872C99.4467 371.566 99.3133 371.336 99.12 371.182C98.9267 371.029 98.6567 370.952 98.31 370.952C97.7833 370.952 97.39 371.156 97.13 371.562C96.87 371.962 96.7333 372.629 96.72 373.562C96.8933 373.269 97.1467 373.042 97.48 372.882C97.8133 372.722 98.1733 372.642 98.56 372.642C99 372.642 99.3867 372.739 99.72 372.932C100.06 373.119 100.323 373.392 100.51 373.752C100.703 374.112 100.8 374.542 100.8 375.042C100.8 375.509 100.707 375.926 100.52 376.292C100.34 376.659 100.07 376.949 99.71 377.162C99.35 377.369 98.9167 377.472 98.41 377.472C97.7233 377.472 97.1833 377.322 96.79 377.022C96.4033 376.716 96.13 376.286 95.97 375.732C95.8167 375.179 95.74 374.489 95.74 373.662C95.74 371.222 96.6 370.002 98.32 370.002C98.9867 370.002 99.51 370.182 99.89 370.542C100.277 370.902 100.503 371.346 100.57 371.872H99.52ZM98.31 373.602C97.9033 373.602 97.5567 373.726 97.27 373.972C96.99 374.212 96.85 374.562 96.85 375.022C96.85 375.482 96.98 375.849 97.24 376.122C97.5067 376.389 97.8767 376.522 98.35 376.522C98.77 376.522 99.1 376.392 99.34 376.132C99.5867 375.872 99.71 375.526 99.71 375.092C99.71 374.639 99.59 374.279 99.35 374.012C99.1167 373.739 98.77 373.602 98.31 373.602ZM106.636 371.062L103.856 377.472H102.706L105.516 371.182H101.816V370.212H106.636V371.062Z" fill="#01070D"/>
<path d="M123.996 373.662C123.303 373.316 122.956 372.769 122.956 372.022C122.956 371.662 123.046 371.332 123.226 371.032C123.406 370.732 123.676 370.496 124.036 370.322C124.396 370.142 124.836 370.052 125.356 370.052C125.869 370.052 126.306 370.142 126.666 370.322C127.033 370.496 127.306 370.732 127.486 371.032C127.666 371.332 127.756 371.662 127.756 372.022C127.756 372.396 127.659 372.726 127.466 373.012C127.279 373.292 127.029 373.509 126.716 373.662C127.096 373.802 127.396 374.032 127.616 374.352C127.836 374.666 127.946 375.036 127.946 375.462C127.946 375.896 127.836 376.279 127.616 376.612C127.396 376.946 127.089 377.202 126.696 377.382C126.303 377.562 125.856 377.652 125.356 377.652C124.856 377.652 124.409 377.562 124.016 377.382C123.629 377.202 123.326 376.946 123.106 376.612C122.886 376.279 122.776 375.896 122.776 375.462C122.776 375.029 122.886 374.656 123.106 374.342C123.326 374.029 123.623 373.802 123.996 373.662ZM126.666 372.162C126.666 371.789 126.549 371.502 126.316 371.302C126.083 371.102 125.763 371.002 125.356 371.002C124.956 371.002 124.639 371.102 124.406 371.302C124.173 371.502 124.056 371.792 124.056 372.172C124.056 372.506 124.176 372.779 124.416 372.992C124.663 373.199 124.976 373.302 125.356 373.302C125.736 373.302 126.049 373.196 126.296 372.982C126.543 372.769 126.666 372.496 126.666 372.162ZM125.356 374.162C124.916 374.162 124.556 374.272 124.276 374.492C124.003 374.706 123.866 375.016 123.866 375.422C123.866 375.802 123.999 376.112 124.266 376.352C124.533 376.586 124.896 376.702 125.356 376.702C125.809 376.702 126.166 376.582 126.426 376.342C126.693 376.102 126.826 375.796 126.826 375.422C126.826 375.022 126.689 374.712 126.416 374.492C126.149 374.272 125.796 374.162 125.356 374.162ZM133.763 371.062L130.983 377.472H129.833L132.643 371.182H128.943V370.212H133.763V371.062Z" fill="#01070D"/>
<path d="M150.562 375.922C151.202 375.369 151.705 374.916 152.072 374.562C152.445 374.202 152.755 373.829 153.002 373.442C153.249 373.056 153.372 372.669 153.372 372.282C153.372 371.882 153.275 371.569 153.082 371.342C152.895 371.116 152.599 371.002 152.192 371.002C151.799 371.002 151.492 371.129 151.272 371.382C151.059 371.629 150.945 371.962 150.932 372.382H149.832C149.852 371.622 150.079 371.042 150.512 370.642C150.952 370.236 151.509 370.032 152.182 370.032C152.909 370.032 153.475 370.232 153.882 370.632C154.295 371.032 154.502 371.566 154.502 372.232C154.502 372.712 154.379 373.176 154.132 373.622C153.892 374.062 153.602 374.459 153.262 374.812C152.929 375.159 152.502 375.562 151.982 376.022L151.532 376.422H154.702V377.372H149.842V376.542L150.562 375.922ZM160.324 371.062L157.544 377.472H156.394L159.204 371.182H155.504V370.212H160.324V371.062Z" fill="#01070D"/>
<path d="M176.958 375.952V375.092L180.318 370.272H181.698V374.962H182.628V375.952H181.698V377.472H180.578V375.952H176.958ZM180.628 371.432L178.268 374.962H180.628V371.432ZM188.273 371.162H184.923V373.152C185.063 372.966 185.269 372.809 185.543 372.682C185.823 372.556 186.119 372.492 186.433 372.492C186.993 372.492 187.446 372.612 187.793 372.852C188.146 373.092 188.396 373.396 188.543 373.762C188.696 374.129 188.773 374.516 188.773 374.922C188.773 375.416 188.676 375.856 188.483 376.242C188.296 376.622 188.013 376.922 187.633 377.142C187.259 377.362 186.799 377.472 186.253 377.472C185.526 377.472 184.943 377.292 184.503 376.932C184.063 376.572 183.799 376.096 183.713 375.502H184.823C184.896 375.816 185.059 376.066 185.313 376.252C185.566 376.432 185.883 376.522 186.263 376.522C186.736 376.522 187.089 376.379 187.323 376.092C187.563 375.806 187.683 375.426 187.683 374.952C187.683 374.472 187.563 374.106 187.323 373.852C187.083 373.592 186.729 373.462 186.263 373.462C185.936 373.462 185.659 373.546 185.433 373.712C185.213 373.872 185.053 374.092 184.953 374.372H183.873V370.162H188.273V371.162Z" fill="#01070D"/>
<path d="M205.21 375.952V375.092L208.57 370.272H209.95V374.962H210.88V375.952H209.95V377.472H208.83V375.952H205.21ZM208.88 371.432L206.52 374.962H208.88V371.432ZM211.825 373.732C211.825 372.579 212.018 371.679 212.405 371.032C212.798 370.379 213.471 370.052 214.425 370.052C215.378 370.052 216.048 370.379 216.435 371.032C216.828 371.679 217.025 372.579 217.025 373.732C217.025 374.899 216.828 375.812 216.435 376.472C216.048 377.126 215.378 377.452 214.425 377.452C213.471 377.452 212.798 377.126 212.405 376.472C212.018 375.812 211.825 374.899 211.825 373.732ZM215.905 373.732C215.905 373.192 215.868 372.736 215.795 372.362C215.728 371.989 215.588 371.686 215.375 371.452C215.161 371.212 214.845 371.092 214.425 371.092C214.005 371.092 213.688 371.212 213.475 371.452C213.261 371.686 213.118 371.989 213.045 372.362C212.978 372.736 212.945 373.192 212.945 373.732C212.945 374.292 212.978 374.762 213.045 375.142C213.111 375.522 213.251 375.829 213.465 376.062C213.685 376.296 214.005 376.412 214.425 376.412C214.845 376.412 215.161 376.296 215.375 376.062C215.595 375.829 215.738 375.522 215.805 375.142C215.871 374.762 215.905 374.292 215.905 373.732Z" fill="#01070D"/>
<path d="M238.304 371.162H234.954V373.152C235.094 372.966 235.301 372.809 235.574 372.682C235.854 372.556 236.151 372.492 236.464 372.492C237.024 372.492 237.477 372.612 237.824 372.852C238.177 373.092 238.427 373.396 238.574 373.762C238.727 374.129 238.804 374.516 238.804 374.922C238.804 375.416 238.707 375.856 238.514 376.242C238.327 376.622 238.044 376.922 237.664 377.142C237.291 377.362 236.831 377.472 236.284 377.472C235.557 377.472 234.974 377.292 234.534 376.932C234.094 376.572 233.831 376.096 233.744 375.502H234.854C234.927 375.816 235.091 376.066 235.344 376.252C235.597 376.432 235.914 376.522 236.294 376.522C236.767 376.522 237.121 376.379 237.354 376.092C237.594 375.806 237.714 375.426 237.714 374.952C237.714 374.472 237.594 374.106 237.354 373.852C237.114 373.592 236.761 373.462 236.294 373.462C235.967 373.462 235.691 373.546 235.464 373.712C235.244 373.872 235.084 374.092 234.984 374.372H233.904V370.162H238.304V371.162ZM239.991 373.732C239.991 372.579 240.184 371.679 240.571 371.032C240.964 370.379 241.637 370.052 242.591 370.052C243.544 370.052 244.214 370.379 244.601 371.032C244.994 371.679 245.191 372.579 245.191 373.732C245.191 374.899 244.994 375.812 244.601 376.472C244.214 377.126 243.544 377.452 242.591 377.452C241.637 377.452 240.964 377.126 240.571 376.472C240.184 375.812 239.991 374.899 239.991 373.732ZM244.071 373.732C244.071 373.192 244.034 372.736 243.961 372.362C243.894 371.989 243.754 371.686 243.541 371.452C243.327 371.212 243.011 371.092 242.591 371.092C242.171 371.092 241.854 371.212 241.641 371.452C241.427 371.686 241.284 371.989 241.211 372.362C241.144 372.736 241.111 373.192 241.111 373.732C241.111 374.292 241.144 374.762 241.211 375.142C241.277 375.522 241.417 375.829 241.631 376.062C241.851 376.296 242.171 376.412 242.591 376.412C243.011 376.412 243.327 376.296 243.541 376.062C243.761 375.829 243.904 375.522 243.971 375.142C244.037 374.762 244.071 374.292 244.071 373.732Z" fill="#01070D"/>
<path d="M265.776 371.872C265.703 371.566 265.569 371.336 265.376 371.182C265.183 371.029 264.913 370.952 264.566 370.952C264.039 370.952 263.646 371.156 263.386 371.562C263.126 371.962 262.989 372.629 262.976 373.562C263.149 373.269 263.403 373.042 263.736 372.882C264.069 372.722 264.429 372.642 264.816 372.642C265.256 372.642 265.643 372.739 265.976 372.932C266.316 373.119 266.579 373.392 266.766 373.752C266.959 374.112 267.056 374.542 267.056 375.042C267.056 375.509 266.963 375.926 266.776 376.292C266.596 376.659 266.326 376.949 265.966 377.162C265.606 377.369 265.173 377.472 264.666 377.472C263.979 377.472 263.439 377.322 263.046 377.022C262.659 376.716 262.386 376.286 262.226 375.732C262.073 375.179 261.996 374.489 261.996 373.662C261.996 371.222 262.856 370.002 264.576 370.002C265.243 370.002 265.766 370.182 266.146 370.542C266.533 370.902 266.759 371.346 266.826 371.872H265.776ZM264.566 373.602C264.159 373.602 263.813 373.726 263.526 373.972C263.246 374.212 263.106 374.562 263.106 375.022C263.106 375.482 263.236 375.849 263.496 376.122C263.763 376.389 264.133 376.522 264.606 376.522C265.026 376.522 265.356 376.392 265.596 376.132C265.843 375.872 265.966 375.526 265.966 375.092C265.966 374.639 265.846 374.279 265.606 374.012C265.373 373.739 265.026 373.602 264.566 373.602ZM268.272 373.732C268.272 372.579 268.465 371.679 268.852 371.032C269.245 370.379 269.919 370.052 270.872 370.052C271.825 370.052 272.495 370.379 272.882 371.032C273.275 371.679 273.472 372.579 273.472 373.732C273.472 374.899 273.275 375.812 272.882 376.472C272.495 377.126 271.825 377.452 270.872 377.452C269.919 377.452 269.245 377.126 268.852 376.472C268.465 375.812 268.272 374.899 268.272 373.732ZM272.352 373.732C272.352 373.192 272.315 372.736 272.242 372.362C272.175 371.989 272.035 371.686 271.822 371.452C271.609 371.212 271.292 371.092 270.872 371.092C270.452 371.092 270.135 371.212 269.922 371.452C269.709 371.686 269.565 371.989 269.492 372.362C269.425 372.736 269.392 373.192 269.392 373.732C269.392 374.292 269.425 374.762 269.492 375.142C269.559 375.522 269.699 375.829 269.912 376.062C270.132 376.296 270.452 376.412 270.872 376.412C271.292 376.412 271.609 376.296 271.822 376.062C272.042 375.829 272.185 375.522 272.252 375.142C272.319 374.762 272.352 374.292 272.352 373.732Z" fill="#01070D"/>
</g>
<path d="M102.5 143.259H122" stroke="#1D92FF" stroke-width="4" stroke-linecap="round" stroke-linejoin="round"/>
<path d="M102.5 152.259H122" stroke="#1D92FF" stroke-width="4" stroke-linecap="round" stroke-linejoin="round"/>
<path d="M102.5 161.259H122" stroke="#1D92FF" stroke-width="4" stroke-linecap="round" stroke-linejoin="round"/>
<defs>
<filter id="filter0_f" x="0" y="0.259277" width="404" height="488" filterUnits="userSpaceOnUse" color-interpolation-filters="sRGB">
<feFlood flood-opacity="0" result="BackgroundImageFix"/>
<feBlend mode="normal" in="SourceGraphic" in2="BackgroundImageFix" result="shape"/>
<feGaussianBlur stdDeviation="37" result="effect1_foregroundBlur"/>
</filter>
</defs>
</svg>
